<svg width="58" height="43" viewBox="0 0 58 43" fill="none" xmlns="http://www.w3.org/2000/svg">
<path d="M11.9581 9.16699C8.2108 13.2016 4.46352 17.2362 0.716246 21.2707C-0.655774 22.748 0.0701163 24.7623 1.81942 25.4492C6.43977 27.2635 10.6173 30.0944 14.108 33.6097C16.3785 35.8962 19.9143 32.361 17.6435 30.0742C13.5152 25.9168 8.59264 22.7656 3.14862 20.6278L4.25179 24.8063C7.99906 20.7717 11.7463 16.7371 15.4936 12.7025C17.6813 10.3471 14.1535 6.80317 11.9581 9.16699Z" fill="#47884A"/>
<path d="M42.269 12.7025C46.0162 16.7371 49.7635 20.7717 53.5108 24.8063C53.8785 23.4135 54.2462 22.0206 54.6139 20.6278C49.17 22.7655 44.2473 25.9168 40.1191 30.0742C37.8492 32.36 41.3831 35.8972 43.6546 33.6097C47.1453 30.0943 51.3227 27.2635 55.9431 25.4492C57.6924 24.7623 58.4183 22.748 57.0463 21.2707C53.2991 17.2362 49.5518 13.2016 45.8045 9.16699C43.61 6.80419 40.0804 10.3461 42.269 12.7025Z" fill="#47884A"/>
<path d="M24.6905 40.9371C29.606 28.3477 34.5215 15.7582 39.437 3.16877C39.9282 1.91069 38.8969 0.424848 37.6909 0.0934675C36.275 -0.295583 35.1086 0.576887 34.6156 1.83957C29.7001 14.429 24.7846 27.0185 19.8691 39.6079C19.3779 40.866 20.4092 42.3518 21.6152 42.6832C23.0311 43.0723 24.1975 42.1998 24.6905 40.9371Z" fill="#47884A"/>
</svg>
