<svg width="199" height="43" viewBox="0 0 199 43" fill="none" xmlns="http://www.w3.org/2000/svg">
<path d="M6.856 5.12C11.4 5.12 15.08 6.27201 17.896 8.57601C20.744 10.88 22.168 15.12 22.168 21.296C22.168 27.472 20.728 31.808 17.848 34.304C15 36.768 11.512 38 7.384 38H0.328003V5.12H6.856ZM3.208 7.52001V35.6H7.576C15.288 35.6 19.144 30.832 19.144 21.296C19.144 17.52 18.584 14.624 17.464 12.608C16.344 10.592 14.92 9.24801 13.192 8.57601C11.496 7.87201 9.512 7.52001 7.24 7.52001H3.208Z" fill="#171717"/>
<path d="M45.5474 32.432C45.5474 33.744 45.7074 34.688 46.0274 35.264C46.3794 35.84 46.9234 36.272 47.6594 36.56L47.0354 38.528C45.8834 38.304 44.9874 37.872 44.3474 37.232C43.7394 36.592 43.3394 35.616 43.1474 34.304C41.4194 37.12 38.8114 38.528 35.3234 38.528C32.9234 38.528 31.0194 37.856 29.6114 36.512C28.2354 35.136 27.5474 33.312 27.5474 31.04C27.5474 28.448 28.4594 26.448 30.2834 25.04C32.1394 23.632 34.6994 22.928 37.9634 22.928H42.7634V20.48C42.7634 18.464 42.3154 17.008 41.4194 16.112C40.5234 15.184 39.0354 14.72 36.9554 14.72C35.0354 14.72 32.7634 15.2 30.1394 16.16L29.4194 14.048C32.2354 12.928 34.8754 12.368 37.3394 12.368C42.8114 12.368 45.5474 15.024 45.5474 20.336V32.432ZM35.8034 36.272C38.8114 36.272 41.1314 34.8 42.7634 31.856V24.944H38.3954C35.8354 24.944 33.8834 25.44 32.5394 26.432C31.1954 27.424 30.5234 28.912 30.5234 30.896C30.5234 32.624 30.9874 33.952 31.9154 34.88C32.8434 35.808 34.1394 36.272 35.8034 36.272Z" fill="#171717"/>
<path d="M66.7698 12.368C69.0418 12.368 70.7698 13.04 71.9538 14.384C73.1698 15.728 73.7778 17.616 73.7778 20.048V38H70.9938V20.432C70.9938 18.416 70.5938 16.944 69.7938 16.016C68.9938 15.088 67.8098 14.624 66.2418 14.624C64.6418 14.624 63.2178 15.072 61.9698 15.968C60.7538 16.832 59.5858 18.112 58.4658 19.808V38H55.6818V12.896H58.0818L58.3698 17.168C59.3938 15.664 60.6098 14.496 62.0178 13.664C63.4258 12.8 65.0098 12.368 66.7698 12.368Z" fill="#171717"/>
<path d="M86.497 12.896V38H83.713V12.896H86.497ZM85.057 1.85601C85.697 1.85601 86.209 2.04801 86.593 2.432C86.977 2.81601 87.169 3.29601 87.169 3.87201C87.169 4.44801 86.977 4.92801 86.593 5.31201C86.209 5.69601 85.697 5.88801 85.057 5.88801C84.449 5.88801 83.953 5.69601 83.569 5.31201C83.185 4.92801 82.993 4.44801 82.993 3.87201C82.993 3.29601 83.185 2.81601 83.569 2.432C83.953 2.04801 84.449 1.85601 85.057 1.85601Z" fill="#171717"/>
<path d="M117.723 24.848C117.723 25.648 117.659 26.656 117.531 27.872H101.979C102.235 29.6 102.763 30.768 103.562 31.376C104.395 31.952 105.579 32.24 107.115 32.24C108.011 32.24 108.923 32.064 109.851 31.712C110.779 31.328 111.803 30.752 112.923 29.984L116.763 35.168C113.659 37.696 110.139 38.96 106.202 38.96C101.658 38.96 98.2185 37.712 95.8825 35.216C93.5465 32.688 92.3785 29.36 92.3785 25.232C92.3785 22.672 92.8585 20.352 93.8185 18.272C94.8105 16.16 96.2665 14.496 98.1865 13.28C100.107 12.032 102.427 11.408 105.147 11.408C107.675 11.408 109.883 11.936 111.771 12.992C113.659 14.048 115.115 15.584 116.139 17.6C117.195 19.616 117.723 22.032 117.723 24.848ZM108.363 22.16C108.331 20.656 108.091 19.488 107.643 18.656C107.227 17.824 106.459 17.408 105.339 17.408C104.283 17.408 103.483 17.776 102.939 18.512C102.427 19.248 102.091 20.576 101.931 22.496H108.363V22.16Z" fill="#171717"/>
<path d="M128.121 38.96C125.529 38.96 123.529 38.24 122.121 36.8C120.745 35.328 120.057 33.264 120.057 30.608V2.28801L129.561 1.328V30.224C129.561 31.088 129.945 31.52 130.713 31.52C131.065 31.52 131.401 31.456 131.721 31.328L133.401 38.096C131.897 38.672 130.137 38.96 128.121 38.96Z" fill="#171717"/>
<path d="M152.958 9.16699C149.211 13.2016 145.464 17.2362 141.716 21.2707C140.344 22.748 141.07 24.7623 142.819 25.4492C147.44 27.2635 151.617 30.0944 155.108 33.6097C157.378 35.8962 160.914 32.361 158.644 30.0742C154.515 25.9168 149.593 22.7656 144.149 20.6278L145.252 24.8063C148.999 20.7717 152.746 16.7371 156.494 12.7025C158.681 10.3471 155.154 6.80317 152.958 9.16699Z" fill="#47884A"/>
<path d="M183.269 12.7025C187.016 16.7371 190.764 20.7717 194.511 24.8063C194.878 23.4135 195.246 22.0206 195.614 20.6278C190.17 22.7655 185.247 25.9168 181.119 30.0742C178.849 32.36 182.383 35.8972 184.655 33.6097C188.145 30.0943 192.323 27.2635 196.943 25.4492C198.692 24.7623 199.418 22.748 198.046 21.2707C194.299 17.2362 190.552 13.2016 186.805 9.16699C184.61 6.80419 181.08 10.3461 183.269 12.7025Z" fill="#47884A"/>
<path d="M165.691 40.9371C170.606 28.3477 175.522 15.7582 180.437 3.16877C180.928 1.91069 179.897 0.424848 178.691 0.0934675C177.275 -0.295583 176.109 0.576887 175.616 1.83957C170.7 14.429 165.785 27.0185 160.869 39.6079C160.378 40.866 161.409 42.3518 162.615 42.6832C164.031 43.0723 165.197 42.1998 165.691 40.9371Z" fill="#47884A"/>
</svg>
