<svg width="204" height="58" viewBox="0 0 204 58" fill="none" xmlns="http://www.w3.org/2000/svg">
<path d="M11.856 13.12C16.4 13.12 20.08 14.272 22.896 16.576C25.744 18.88 27.168 23.12 27.168 29.296C27.168 35.472 25.728 39.808 22.848 42.304C20 44.768 16.512 46 12.384 46H5.328V13.12H11.856ZM8.208 15.52V43.6H12.576C20.288 43.6 24.144 38.832 24.144 29.296C24.144 25.52 23.584 22.624 22.464 20.608C21.344 18.592 19.92 17.248 18.192 16.576C16.496 15.872 14.512 15.52 12.24 15.52H8.208ZM50.5474 40.432C50.5474 41.744 50.7074 42.688 51.0274 43.264C51.3794 43.84 51.9234 44.272 52.6594 44.56L52.0354 46.528C50.8834 46.304 49.9874 45.872 49.3474 45.232C48.7394 44.592 48.3394 43.616 48.1474 42.304C46.4194 45.12 43.8114 46.528 40.3234 46.528C37.9234 46.528 36.0194 45.856 34.6114 44.512C33.2354 43.136 32.5474 41.312 32.5474 39.04C32.5474 36.448 33.4594 34.448 35.2834 33.04C37.1394 31.632 39.6994 30.928 42.9634 30.928H47.7634V28.48C47.7634 26.464 47.3154 25.008 46.4194 24.112C45.5234 23.184 44.0354 22.72 41.9554 22.72C40.0354 22.72 37.7634 23.2 35.1394 24.16L34.4194 22.048C37.2354 20.928 39.8754 20.368 42.3394 20.368C47.8114 20.368 50.5474 23.024 50.5474 28.336V40.432ZM40.8034 44.272C43.8114 44.272 46.1314 42.8 47.7634 39.856V32.944H43.3954C40.8354 32.944 38.8834 33.44 37.5394 34.432C36.1954 35.424 35.5234 36.912 35.5234 38.896C35.5234 40.624 35.9874 41.952 36.9154 42.88C37.8434 43.808 39.1394 44.272 40.8034 44.272ZM71.7698 20.368C74.0418 20.368 75.7698 21.04 76.9538 22.384C78.1698 23.728 78.7778 25.616 78.7778 28.048V46H75.9938V28.432C75.9938 26.416 75.5938 24.944 74.7938 24.016C73.9938 23.088 72.8098 22.624 71.2418 22.624C69.6418 22.624 68.2178 23.072 66.9698 23.968C65.7538 24.832 64.5858 26.112 63.4658 27.808V46H60.6818V20.896H63.0818L63.3698 25.168C64.3938 23.664 65.6098 22.496 67.0178 21.664C68.4258 20.8 70.0098 20.368 71.7698 20.368ZM91.497 20.896V46H88.713V20.896H91.497ZM90.057 9.856C90.697 9.856 91.209 10.048 91.593 10.432C91.977 10.816 92.169 11.296 92.169 11.872C92.169 12.448 91.977 12.928 91.593 13.312C91.209 13.696 90.697 13.888 90.057 13.888C89.449 13.888 88.953 13.696 88.569 13.312C88.185 12.928 87.993 12.448 87.993 11.872C87.993 11.296 88.185 10.816 88.569 10.432C88.953 10.048 89.449 9.856 90.057 9.856ZM122.723 32.848C122.723 33.648 122.659 34.656 122.531 35.872H106.979C107.235 37.6 107.763 38.768 108.562 39.376C109.395 39.952 110.579 40.24 112.115 40.24C113.011 40.24 113.923 40.064 114.851 39.712C115.779 39.328 116.803 38.752 117.923 37.984L121.763 43.168C118.659 45.696 115.139 46.96 111.203 46.96C106.659 46.96 103.219 45.712 100.883 43.216C98.5465 40.688 97.3785 37.36 97.3785 33.232C97.3785 30.672 97.8585 28.352 98.8185 26.272C99.8105 24.16 101.267 22.496 103.187 21.28C105.107 20.032 107.427 19.408 110.147 19.408C112.675 19.408 114.883 19.936 116.771 20.992C118.659 22.048 120.115 23.584 121.139 25.6C122.195 27.616 122.723 30.032 122.723 32.848ZM113.363 30.16C113.331 28.656 113.091 27.488 112.643 26.656C112.227 25.824 111.459 25.408 110.339 25.408C109.283 25.408 108.483 25.776 107.939 26.512C107.427 27.248 107.091 28.576 106.931 30.496H113.363V30.16ZM133.121 46.96C130.529 46.96 128.529 46.24 127.121 44.8C125.745 43.328 125.057 41.264 125.057 38.608V10.288L134.561 9.328V38.224C134.561 39.088 134.945 39.52 135.713 39.52C136.065 39.52 136.401 39.456 136.721 39.328L138.401 46.096C136.897 46.672 135.137 46.96 133.121 46.96Z" fill="#171717"/>
<g clip-path="url(#clip0_104_2)">
<path d="M157.958 17.167C154.211 21.2016 150.464 25.2362 146.716 29.2707C145.344 30.748 146.07 32.7623 147.819 33.4492C152.44 35.2635 156.617 38.0944 160.108 41.6097C162.378 43.8962 165.914 40.361 163.644 38.0742C159.515 33.9168 154.593 30.7655 149.149 28.6278L150.252 32.8063C153.999 28.7717 157.746 24.7371 161.494 20.7025C163.681 18.3471 160.154 14.8032 157.958 17.167Z" fill="#47884A"/>
<path d="M188.269 20.7025C192.016 24.7371 195.764 28.7717 199.511 32.8063C199.879 31.4135 200.246 30.0206 200.614 28.6278C195.17 30.7656 190.247 33.9168 186.119 38.0742C183.849 40.36 187.383 43.8972 189.655 41.6097C193.145 38.0943 197.323 35.2636 201.943 33.4492C203.692 32.7623 204.418 30.748 203.046 29.2708C199.299 25.2362 195.552 21.2016 191.805 17.167C189.61 14.8042 186.08 18.3461 188.269 20.7025Z" fill="#47884A"/>
<path d="M170.691 48.9371C175.606 36.3477 180.522 23.7582 185.437 11.1688C185.928 9.91069 184.897 8.42485 183.691 8.09347C182.275 7.70442 181.109 8.57689 180.616 9.83957C175.7 22.429 170.785 35.0185 165.869 47.6079C165.378 48.866 166.409 50.3518 167.615 50.6832C169.031 51.0723 170.197 50.1998 170.691 48.9371Z" fill="#47884A"/>
</g>
<defs>
<clipPath id="clip0_104_2">
<rect width="57.7626" height="42.7767" fill="white" transform="translate(146 8)"/>
</clipPath>
</defs>
</svg>
